<svg width="16" height="16" viewBox="0 0 16 16" fill="none" xmlns="http://www.w3.org/2000/svg">
<path d="M6.30603 3.23705C6.08017 2.78533 5.61849 2.5 5.11345 2.5H3.83333C3.09695 2.5 2.5 3.09695 2.5 3.83333V3.875C2.5 9.19073 6.80927 13.5 12.125 13.5H12.1667C12.9031 13.5 13.5 12.9031 13.5 12.1667V10.8865C13.5 10.3815 13.2147 9.9198 12.7629 9.694L11.4312 9.02813C11.0244 8.82473 10.5331 8.9044 10.2115 9.22607C9.91253 9.52493 9.46053 9.62373 9.0834 9.43287C7.93873 8.85353 7.14647 8.06127 6.56713 6.9166C6.37623 6.53947 6.47505 6.08745 6.77393 5.78855C7.0956 5.46693 7.17527 4.9756 6.97187 4.56878L6.30603 3.23705Z" stroke="#925BF0" stroke-width="1.33333" stroke-linejoin="round"/>
</svg>
