<svg width="16" height="16" viewBox="0 0 16 16" fill="none" xmlns="http://www.w3.org/2000/svg">
<path d="M1.16699 13.5002C1.16699 10.3895 3.16699 9.16699 5.50033 9.16699" stroke="#925BF0" stroke-width="1.33" stroke-linecap="round" stroke-linejoin="round"/>
<path d="M7.13333 13.5002H12.9633C13.2612 13.5002 13.5229 13.3026 13.6045 13.0161L14.5915 9.5494C14.7127 9.12366 14.393 8.7002 13.9503 8.7002H9.1292C8.75687 8.7002 8.42967 8.9472 8.32773 9.30533L7.13333 13.5002ZM7.13333 13.5002H4.5" stroke="#925BF0" stroke-width="1.33" stroke-linecap="round" stroke-linejoin="round"/>
<path d="M5.83333 7.33366C7.122 7.33366 8.16667 6.28899 8.16667 5.00033C8.16667 3.71166 7.122 2.66699 5.83333 2.66699C4.54467 2.66699 3.5 3.71166 3.5 5.00033C3.5 6.28899 4.54467 7.33366 5.83333 7.33366Z" stroke="#925BF0" stroke-width="1.33" stroke-linecap="round" stroke-linejoin="round"/>
<path d="M12.6565 1.62161C12.6379 1.45735 12.499 1.33317 12.3337 1.33301C12.1683 1.33284 12.0292 1.45672 12.0103 1.62095C11.892 2.64629 11.3133 3.22501 10.2879 3.34328C10.1237 3.36222 9.9998 3.50136 10 3.66667C10.0002 3.83199 10.1243 3.97087 10.2886 3.98947C11.2994 4.10397 11.9183 4.67712 12.0094 5.70325C12.0243 5.87117 12.1651 5.99986 12.3337 5.99967C12.5023 5.99948 12.6428 5.87048 12.6573 5.70252C12.7449 4.6909 13.3579 4.0779 14.3695 3.99033C14.5375 3.97579 14.6665 3.8353 14.6667 3.66671C14.6669 3.49811 14.5382 3.35733 14.3703 3.34241C13.3441 3.25126 12.7709 2.63241 12.6565 1.62161Z" fill="#925BF0"/>
</svg>
