<svg width="16" height="16" viewBox="0 0 16 16" fill="none" xmlns="http://www.w3.org/2000/svg">
<path d="M2.18783 12.8337C1.62403 12.8337 1.16699 12.3766 1.16699 11.8129C1.16699 9.79926 2.88323 8.16699 5.00033 8.16699C7.11739 8.16699 8.83366 9.79926 8.83366 11.8129C8.83366 12.3766 8.37659 12.8337 7.81279 12.8337H2.18783Z" stroke="#925BF0" stroke-width="1.33" stroke-linecap="round" stroke-linejoin="round"/>
<path d="M11.167 12.167H13.5003C14.2367 12.167 14.8562 11.5641 14.7269 10.8391C14.4379 9.21846 13.535 8.16699 11.6908 8.16699" stroke="#925BF0" stroke-width="1.33" stroke-linecap="round" stroke-linejoin="round"/>
<path d="M5 8.16699C6.38071 8.16699 7.5 7.0477 7.5 5.66699C7.5 4.28628 6.38071 3.16699 5 3.16699C3.61929 3.16699 2.5 4.28628 2.5 5.66699C2.5 7.0477 3.61929 8.16699 5 8.16699Z" stroke="#925BF0" stroke-width="1.33" stroke-linecap="round" stroke-linejoin="round"/>
<path d="M11.6663 8.16667C12.6789 8.16667 13.4997 7.34586 13.4997 6.33333C13.4997 5.32081 12.6789 4.5 11.6663 4.5C10.6538 4.5 9.83301 5.32081 9.83301 6.33333C9.83301 7.34586 10.6538 8.16667 11.6663 8.16667Z" stroke="#925BF0" stroke-width="1.33" stroke-linecap="round" stroke-linejoin="round"/>
</svg>
